  0
SECTION
  2
BLOCKS
  0
ENDSEC
  0
SECTION
  2
ENTITIES
  0
LINE
  8
0
 10
-82.0503
 20
-48.0289
 11
-72.9737
 21
-61.7831
  0
LINE
  8
0
 10
-72.9737
 20
-61.7831
 11
-71.6714
 21
-62.0493
  0
LINE
  8
0
 10
-71.6714
 20
-62.0493
 11
-57.466
 21
-52.8241
  0
LINE
  8
0
 10
-57.466
 20
-52.8241
 11
-53.5561
 21
-50.4139
  0
LINE
  8
0
 10
-53.5561
 20
-50.4139
 11
-53.5411
 21
-50.4064
  0
LINE
  8
0
 10
-53.5411
 20
-50.4064
 11
-38.7393
 21
-44.426
  0
LINE
  8
0
 10
-38.7393
 20
-44.426
 11
-38.7328
 21
-44.4237
  0
LINE
  8
0
 10
-38.7328
 20
-44.4237
 11
-34.7717
 21
-43.1357
  0
LINE
  8
0
 10
-34.7717
 20
-43.1357
 11
-34.7582
 21
-43.1323
  0
LINE
  8
0
 10
-34.7582
 20
-43.1323
 11
-22.1343
 21
-40.9064
  0
LINE
  8
0
 10
-22.1343
 20
-40.9064
 11
-8.21983
 21
-19.5769
  0
LINE
  8
0
 10
-8.21983
 20
-19.5769
 11
-8.18863
 21
-19.5465
  0
LINE
  8
0
 10
-8.18863
 20
-19.5465
 11
-7.7101
 21
-19.2509
  0
LINE
  8
0
 10
-7.7101
 20
-19.2509
 11
-7.65755
 21
-19.236
  0
LINE
  8
0
 10
-7.65755
 20
-19.236
 11
8.93449
 21
-19.236
  0
LINE
  8
0
 10
8.93449
 20
-19.236
 11
9.02811
 21
-19.3008
  0
LINE
  8
0
 10
9.02811
 20
-19.3008
 11
12.0085
 21
-27.236
  0
LINE
  8
0
 10
12.0085
 20
-27.236
 11
28.6328
 21
-27.236
  0
LINE
  8
0
 10
28.6328
 20
-27.236
 11
29.268
 21
-26.588
  0
LINE
  8
0
 10
29.268
 20
-26.588
 11
28.9195
 21
-9.8293
  0
LINE
  8
0
 10
28.9195
 20
-9.8293
 11
28.9195
 21
-6.17068
  0
LINE
  8
0
 10
28.9195
 20
-6.17068
 11
29.2713
 21
10.7457
  0
LINE
  8
0
 10
29.2713
 20
10.7457
 11
29.4202
 21
14.2445
  0
LINE
  8
0
 10
29.4202
 20
14.2445
 11
30.3973
 21
28.9647
  0
LINE
  8
0
 10
30.3973
 20
28.9647
 11
29.819
 21
29.5257
  0
LINE
  8
0
 10
29.819
 20
29.5257
 11
13.025
 21
29.5257
  0
LINE
  8
0
 10
13.025
 20
29.5257
 11
12.929
 21
29.5977
  0
LINE
  8
0
 10
12.929
 20
29.5977
 11
12.6778
 21
30.4587
  0
LINE
  8
0
 10
12.6778
 20
30.4587
 11
10.634
 21
37.5257
  0
LINE
  8
0
 10
10.634
 20
37.5257
 11
-5.59807
 21
37.5257
  0
LINE
  8
0
 10
-5.59807
 20
37.5257
 11
-5.67996
 21
37.5683
  0
LINE
  8
0
 10
-5.67996
 20
37.5683
 11
-7.75237
 21
40.5257
  0
LINE
  8
0
 10
-7.75237
 20
40.5257
 11
-23.4879
 21
40.5257
  0
LINE
  8
0
 10
-23.4879
 20
40.5257
 11
-24.1754
 21
37.6028
  0
LINE
  8
0
 10
-24.1754
 20
37.6028
 11
-24.2727
 21
37.5257
  0
LINE
  8
0
 10
-24.2727
 20
37.5257
 11
-25.759
 21
37.5257
  0
LINE
  8
0
 10
-25.759
 20
37.5257
 11
-25.859
 21
37.6257
  0
LINE
  8
0
 10
-25.859
 20
37.6257
 11
-25.859
 21
38.3363
  0
LINE
  8
0
 10
-25.859
 20
38.3363
 11
-25.759
 21
38.4364
  0
LINE
  8
0
 10
-25.759
 20
38.4364
 11
-24.8004
 21
38.4364
  0
LINE
  8
0
 10
-24.8004
 20
38.4364
 11
-24.759
 21
38.4778
  0
LINE
  8
0
 10
-24.759
 20
38.4778
 11
-24.759
 21
39.345
  0
LINE
  8
0
 10
-24.759
 20
39.345
 11
-24.8004
 21
39.3864
  0
LINE
  8
0
 10
-24.8004
 20
39.3864
 11
-25.759
 21
39.3864
  0
LINE
  8
0
 10
-25.759
 20
39.3864
 11
-25.859
 21
39.4864
  0
LINE
  8
0
 10
-25.859
 20
39.4864
 11
-25.859
 21
40.3822
  0
LINE
  8
0
 10
-25.859
 20
40.3822
 11
-55.875
 21
40.3822
  0
LINE
  8
0
 10
-55.875
 20
40.3822
 11
-55.875
 21
39.4864
  0
LINE
  8
0
 10
-55.875
 20
39.4864
 11
-55.975
 21
39.3864
  0
LINE
  8
0
 10
-55.975
 20
39.3864
 11
-56.9336
 21
39.3864
  0
LINE
  8
0
 10
-56.9336
 20
39.3864
 11
-56.975
 21
39.345
  0
LINE
  8
0
 10
-56.975
 20
39.345
 11
-56.975
 21
38.4778
  0
LINE
  8
0
 10
-56.975
 20
38.4778
 11
-56.9336
 21
38.4364
  0
LINE
  8
0
 10
-56.9336
 20
38.4364
 11
-55.975
 21
38.4364
  0
LINE
  8
0
 10
-55.975
 20
38.4364
 11
-55.875
 21
38.3363
  0
LINE
  8
0
 10
-55.875
 20
38.3363
 11
-55.875
 21
37.6257
  0
LINE
  8
0
 10
-55.875
 20
37.6257
 11
-55.975
 21
37.5257
  0
LINE
  8
0
 10
-55.975
 20
37.5257
 11
-56.0999
 21
37.5257
  0
LINE
  8
0
 10
-56.0999
 20
37.5257
 11
-56.3045
 21
36.7162
  0
LINE
  8
0
 10
-56.3045
 20
36.7162
 11
-56.3927
 21
36.6411
  0
LINE
  8
0
 10
-56.3927
 20
36.6411
 11
-57.1362
 21
36.576
  0
LINE
  8
0
 10
-57.1362
 20
36.576
 11
-57.175
 21
36.5337
  0
LINE
  8
0
 10
-57.175
 20
36.5337
 11
-57.175
 21
33.2845
  0
LINE
  8
0
 10
-57.175
 20
33.2845
 11
-57.178
 21
33.26
  0
LINE
  8
0
 10
-57.178
 20
33.26
 11
-60.1633
 21
21.4491
  0
LINE
  8
0
 10
-60.1633
 20
21.4491
 11
-60.6679
 21
18.335
  0
LINE
  8
0
 10
-60.6679
 20
18.335
 11
-61.991
 21
1.62868
  0
LINE
  8
0
 10
-61.991
 20
1.62868
 11
-61.991
 21
-1.62869
  0
LINE
  8
0
 10
-61.991
 20
-1.62869
 11
-60.6597
 21
-18.438
  0
LINE
  8
0
 10
-60.6597
 20
-18.438
 11
-60.6597
 21
-18.4533
  0
LINE
  8
0
 10
-60.6597
 20
-18.4533
 11
-61.7413
 21
-32.8711
  0
LINE
  8
0
 10
-61.7413
 20
-32.8711
 11
-61.3899
 21
-33.6039
  0
LINE
  8
0
 10
-61.3899
 20
-33.6039
 11
-61.4055
 21
-33.7138
  0
LINE
  8
0
 10
-61.4055
 20
-33.7138
 11
-61.9299
 21
-34.3002
  0
LINE
  8
0
 10
-61.9299
 20
-34.3002
 11
-61.9535
 21
-34.3196
  0
LINE
  8
0
 10
-61.9535
 20
-34.3196
 11
-67.689
 21
-37.717
  0
LINE
  8
0
 10
-67.689
 20
-37.717
 11
-81.8064
 21
-46.885
  0
LINE
  8
0
 10
-81.8064
 20
-46.885
 11
-82.0503
 21
-48.0289
  0
LINE
  8
0
 10
-63.7979
 20
-37.5268
 11
-63.776
 21
-37.3189
  0
LINE
  8
0
 10
-63.776
 20
-37.3189
 11
-63.7114
 21
-37.1201
  0
LINE
  8
0
 10
-63.7114
 20
-37.1201
 11
-63.6069
 21
-36.939
  0
LINE
  8
0
 10
-63.6069
 20
-36.939
 11
-63.467
 21
-36.7837
  0
LINE
  8
0
 10
-63.467
 20
-36.7837
 11
-63.2979
 21
-36.6608
  0
LINE
  8
0
 10
-63.2979
 20
-36.6608
 11
-63.1069
 21
-36.5758
  0
LINE
  8
0
 10
-63.1069
 20
-36.5758
 11
-62.9024
 21
-36.5323
  0
LINE
  8
0
 10
-62.9024
 20
-36.5323
 11
-62.6933
 21
-36.5323
  0
LINE
  8
0
 10
-62.6933
 20
-36.5323
 11
-62.4888
 21
-36.5758
  0
LINE
  8
0
 10
-62.4888
 20
-36.5758
 11
-62.2979
 21
-36.6608
  0
LINE
  8
0
 10
-62.2979
 20
-36.6608
 11
-62.1287
 21
-36.7837
  0
LINE
  8
0
 10
-62.1287
 20
-36.7837
 11
-61.9888
 21
-36.939
  0
LINE
  8
0
 10
-61.9888
 20
-36.939
 11
-61.8843
 21
-37.1201
  0
LINE
  8
0
 10
-61.8843
 20
-37.1201
 11
-61.8197
 21
-37.3189
  0
LINE
  8
0
 10
-61.8197
 20
-37.3189
 11
-61.7979
 21
-37.5268
  0
LINE
  8
0
 10
-61.7979
 20
-37.5268
 11
-61.8197
 21
-37.7347
  0
LINE
  8
0
 10
-61.8197
 20
-37.7347
 11
-61.8843
 21
-37.9335
  0
LINE
  8
0
 10
-61.8843
 20
-37.9335
 11
-61.9888
 21
-38.1146
  0
LINE
  8
0
 10
-61.9888
 20
-38.1146
 11
-62.1287
 21
-38.27
  0
LINE
  8
0
 10
-62.1287
 20
-38.27
 11
-62.2979
 21
-38.3928
  0
LINE
  8
0
 10
-62.2979
 20
-38.3928
 11
-62.4888
 21
-38.4779
  0
LINE
  8
0
 10
-62.4888
 20
-38.4779
 11
-62.6933
 21
-38.5213
  0
LINE
  8
0
 10
-62.6933
 20
-38.5213
 11
-62.9024
 21
-38.5213
  0
LINE
  8
0
 10
-62.9024
 20
-38.5213
 11
-63.1069
 21
-38.4779
  0
LINE
  8
0
 10
-63.1069
 20
-38.4779
 11
-63.2979
 21
-38.3928
  0
LINE
  8
0
 10
-63.2979
 20
-38.3928
 11
-63.467
 21
-38.27
  0
LINE
  8
0
 10
-63.467
 20
-38.27
 11
-63.6069
 21
-38.1146
  0
LINE
  8
0
 10
-63.6069
 20
-38.1146
 11
-63.7114
 21
-37.9335
  0
LINE
  8
0
 10
-63.7114
 20
-37.9335
 11
-63.776
 21
-37.7347
  0
LINE
  8
0
 10
-63.776
 20
-37.7347
 11
-63.7979
 21
-37.5268
  0
LINE
  8
0
 10
-60.2392
 20
-1.86242
 11
-60.2173
 21
-1.65451
  0
LINE
  8
0
 10
-60.2173
 20
-1.65451
 11
-60.1527
 21
-1.45568
  0
LINE
  8
0
 10
-60.1527
 20
-1.45568
 11
-60.0482
 21
-1.27464
  0
LINE
  8
0
 10
-60.0482
 20
-1.27464
 11
-59.9083
 21
-1.11928
  0
LINE
  8
0
 10
-59.9083
 20
-1.11928
 11
-59.7392
 21
-0.996395
  0
LINE
  8
0
 10
-59.7392
 20
-0.996395
 11
-59.5482
 21
-0.911364
  0
LINE
  8
0
 10
-59.5482
 20
-0.911364
 11
-59.3437
 21
-0.867898
  0
LINE
  8
0
 10
-59.3437
 20
-0.867898
 11
-59.1346
 21
-0.867898
  0
LINE
  8
0
 10
-59.1346
 20
-0.867898
 11
-58.9301
 21
-0.911364
  0
LINE
  8
0
 10
-58.9301
 20
-0.911364
 11
-58.7392
 21
-0.996395
  0
LINE
  8
0
 10
-58.7392
 20
-0.996395
 11
-58.57
 21
-1.11928
  0
LINE
  8
0
 10
-58.57
 20
-1.11928
 11
-58.4301
 21
-1.27464
  0
LINE
  8
0
 10
-58.4301
 20
-1.27464
 11
-58.3256
 21
-1.45568
  0
LINE
  8
0
 10
-58.3256
 20
-1.45568
 11
-58.261
 21
-1.65451
  0
LINE
  8
0
 10
-58.261
 20
-1.65451
 11
-58.2392
 21
-1.86242
  0
LINE
  8
0
 10
-58.2392
 20
-1.86242
 11
-58.261
 21
-2.07033
  0
LINE
  8
0
 10
-58.261
 20
-2.07033
 11
-58.3256
 21
-2.26916
  0
LINE
  8
0
 10
-58.3256
 20
-2.26916
 11
-58.4301
 21
-2.45021
  0
LINE
  8
0
 10
-58.4301
 20
-2.45021
 11
-58.57
 21
-2.60557
  0
LINE
  8
0
 10
-58.57
 20
-2.60557
 11
-58.7392
 21
-2.72845
  0
LINE
  8
0
 10
-58.7392
 20
-2.72845
 11
-58.9301
 21
-2.81348
  0
LINE
  8
0
 10
-58.9301
 20
-2.81348
 11
-59.1346
 21
-2.85694
  0
LINE
  8
0
 10
-59.1346
 20
-2.85694
 11
-59.3437
 21
-2.85694
  0
LINE
  8
0
 10
-59.3437
 20
-2.85694
 11
-59.5482
 21
-2.81348
  0
LINE
  8
0
 10
-59.5482
 20
-2.81348
 11
-59.7392
 21
-2.72845
  0
LINE
  8
0
 10
-59.7392
 20
-2.72845
 11
-59.9083
 21
-2.60557
  0
LINE
  8
0
 10
-59.9083
 20
-2.60557
 11
-60.0482
 21
-2.45021
  0
LINE
  8
0
 10
-60.0482
 20
-2.45021
 11
-60.1527
 21
-2.26916
  0
LINE
  8
0
 10
-60.1527
 20
-2.26916
 11
-60.2173
 21
-2.07033
  0
LINE
  8
0
 10
-60.2173
 20
-2.07033
 11
-60.2392
 21
-1.86242
  0
LINE
  8
0
 10
-25.3268
 20
-38.5268
 11
-25.305
 21
-38.3189
  0
LINE
  8
0
 10
-25.305
 20
-38.3189
 11
-25.2404
 21
-38.1201
  0
LINE
  8
0
 10
-25.2404
 20
-38.1201
 11
-25.1359
 21
-37.939
  0
LINE
  8
0
 10
-25.1359
 20
-37.939
 11
-24.996
 21
-37.7837
  0
LINE
  8
0
 10
-24.996
 20
-37.7837
 11
-24.8268
 21
-37.6608
  0
LINE
  8
0
 10
-24.8268
 20
-37.6608
 11
-24.6359
 21
-37.5758
  0
LINE
  8
0
 10
-24.6359
 20
-37.5758
 11
-24.4314
 21
-37.5323
  0
LINE
  8
0
 10
-24.4314
 20
-37.5323
 11
-24.2223
 21
-37.5323
  0
LINE
  8
0
 10
-24.2223
 20
-37.5323
 11
-24.0178
 21
-37.5758
  0
LINE
  8
0
 10
-24.0178
 20
-37.5758
 11
-23.8268
 21
-37.6608
  0
LINE
  8
0
 10
-23.8268
 20
-37.6608
 11
-23.6577
 21
-37.7837
  0
LINE
  8
0
 10
-23.6577
 20
-37.7837
 11
-23.5178
 21
-37.939
  0
LINE
  8
0
 10
-23.5178
 20
-37.939
 11
-23.4133
 21
-38.1201
  0
LINE
  8
0
 10
-23.4133
 20
-38.1201
 11
-23.3487
 21
-38.3189
  0
LINE
  8
0
 10
-23.3487
 20
-38.3189
 11
-23.3268
 21
-38.5268
  0
LINE
  8
0
 10
-23.3268
 20
-38.5268
 11
-23.3487
 21
-38.7347
  0
LINE
  8
0
 10
-23.3487
 20
-38.7347
 11
-23.4133
 21
-38.9335
  0
LINE
  8
0
 10
-23.4133
 20
-38.9335
 11
-23.5178
 21
-39.1146
  0
LINE
  8
0
 10
-23.5178
 20
-39.1146
 11
-23.6577
 21
-39.27
  0
LINE
  8
0
 10
-23.6577
 20
-39.27
 11
-23.8268
 21
-39.3928
  0
LINE
  8
0
 10
-23.8268
 20
-39.3928
 11
-24.0178
 21
-39.4779
  0
LINE
  8
0
 10
-24.0178
 20
-39.4779
 11
-24.2223
 21
-39.5213
  0
LINE
  8
0
 10
-24.2223
 20
-39.5213
 11
-24.4314
 21
-39.5213
  0
LINE
  8
0
 10
-24.4314
 20
-39.5213
 11
-24.6359
 21
-39.4779
  0
LINE
  8
0
 10
-24.6359
 20
-39.4779
 11
-24.8268
 21
-39.3928
  0
LINE
  8
0
 10
-24.8268
 20
-39.3928
 11
-24.996
 21
-39.27
  0
LINE
  8
0
 10
-24.996
 20
-39.27
 11
-25.1359
 21
-39.1146
  0
LINE
  8
0
 10
-25.1359
 20
-39.1146
 11
-25.2404
 21
-38.9335
  0
LINE
  8
0
 10
-25.2404
 20
-38.9335
 11
-25.305
 21
-38.7347
  0
LINE
  8
0
 10
-25.305
 20
-38.7347
 11
-25.3268
 21
-38.5268
  0
LINE
  8
0
 10
-18.3268
 20
37.3268
 11
-18.305
 21
37.5347
  0
LINE
  8
0
 10
-18.305
 20
37.5347
 11
-18.2404
 21
37.7335
  0
LINE
  8
0
 10
-18.2404
 20
37.7335
 11
-18.1359
 21
37.9146
  0
LINE
  8
0
 10
-18.1359
 20
37.9146
 11
-17.996
 21
38.07
  0
LINE
  8
0
 10
-17.996
 20
38.07
 11
-17.8268
 21
38.1928
  0
LINE
  8
0
 10
-17.8268
 20
38.1928
 11
-17.6359
 21
38.2779
  0
LINE
  8
0
 10
-17.6359
 20
38.2779
 11
-17.4314
 21
38.3213
  0
LINE
  8
0
 10
-17.4314
 20
38.3213
 11
-17.2223
 21
38.3213
  0
LINE
  8
0
 10
-17.2223
 20
38.3213
 11
-17.0178
 21
38.2779
  0
LINE
  8
0
 10
-17.0178
 20
38.2779
 11
-16.8268
 21
38.1928
  0
LINE
  8
0
 10
-16.8268
 20
38.1928
 11
-16.6577
 21
38.07
  0
LINE
  8
0
 10
-16.6577
 20
38.07
 11
-16.5178
 21
37.9146
  0
LINE
  8
0
 10
-16.5178
 20
37.9146
 11
-16.4133
 21
37.7335
  0
LINE
  8
0
 10
-16.4133
 20
37.7335
 11
-16.3487
 21
37.5347
  0
LINE
  8
0
 10
-16.3487
 20
37.5347
 11
-16.3268
 21
37.3268
  0
LINE
  8
0
 10
-16.3268
 20
37.3268
 11
-16.3487
 21
37.1189
  0
LINE
  8
0
 10
-16.3487
 20
37.1189
 11
-16.4133
 21
36.9201
  0
LINE
  8
0
 10
-16.4133
 20
36.9201
 11
-16.5178
 21
36.739
  0
LINE
  8
0
 10
-16.5178
 20
36.739
 11
-16.6577
 21
36.5837
  0
LINE
  8
0
 10
-16.6577
 20
36.5837
 11
-16.8268
 21
36.4608
  0
LINE
  8
0
 10
-16.8268
 20
36.4608
 11
-17.0178
 21
36.3758
  0
LINE
  8
0
 10
-17.0178
 20
36.3758
 11
-17.2223
 21
36.3323
  0
LINE
  8
0
 10
-17.2223
 20
36.3323
 11
-17.4314
 21
36.3323
  0
LINE
  8
0
 10
-17.4314
 20
36.3323
 11
-17.6359
 21
36.3758
  0
LINE
  8
0
 10
-17.6359
 20
36.3758
 11
-17.8268
 21
36.4608
  0
LINE
  8
0
 10
-17.8268
 20
36.4608
 11
-17.996
 21
36.5837
  0
LINE
  8
0
 10
-17.996
 20
36.5837
 11
-18.1359
 21
36.739
  0
LINE
  8
0
 10
-18.1359
 20
36.739
 11
-18.2404
 21
36.9201
  0
LINE
  8
0
 10
-18.2404
 20
36.9201
 11
-18.305
 21
37.1189
  0
LINE
  8
0
 10
-18.305
 20
37.1189
 11
-18.3268
 21
37.3268
  0
LINE
  8
0
 10
-9.32685
 20
-16.5268
 11
-9.305
 21
-16.3189
  0
LINE
  8
0
 10
-9.305
 20
-16.3189
 11
-9.24039
 21
-16.1201
  0
LINE
  8
0
 10
-9.24039
 20
-16.1201
 11
-9.13587
 21
-15.939
  0
LINE
  8
0
 10
-9.13587
 20
-15.939
 11
-8.99598
 21
-15.7837
  0
LINE
  8
0
 10
-8.99598
 20
-15.7837
 11
-8.82685
 21
-15.6608
  0
LINE
  8
0
 10
-8.82685
 20
-15.6608
 11
-8.63587
 21
-15.5758
  0
LINE
  8
0
 10
-8.63587
 20
-15.5758
 11
-8.43138
 21
-15.5323
  0
LINE
  8
0
 10
-8.43138
 20
-15.5323
 11
-8.22232
 21
-15.5323
  0
LINE
  8
0
 10
-8.22232
 20
-15.5323
 11
-8.01783
 21
-15.5758
  0
LINE
  8
0
 10
-8.01783
 20
-15.5758
 11
-7.82685
 21
-15.6608
  0
LINE
  8
0
 10
-7.82685
 20
-15.6608
 11
-7.65772
 21
-15.7837
  0
LINE
  8
0
 10
-7.65772
 20
-15.7837
 11
-7.51783
 21
-15.939
  0
LINE
  8
0
 10
-7.51783
 20
-15.939
 11
-7.4133
 21
-16.1201
  0
LINE
  8
0
 10
-7.4133
 20
-16.1201
 11
-7.3487
 21
-16.3189
  0
LINE
  8
0
 10
-7.3487
 20
-16.3189
 11
-7.32685
 21
-16.5268
  0
LINE
  8
0
 10
-7.32685
 20
-16.5268
 11
-7.3487
 21
-16.7347
  0
LINE
  8
0
 10
-7.3487
 20
-16.7347
 11
-7.4133
 21
-16.9335
  0
LINE
  8
0
 10
-7.4133
 20
-16.9335
 11
-7.51783
 21
-17.1146
  0
LINE
  8
0
 10
-7.51783
 20
-17.1146
 11
-7.65772
 21
-17.27
  0
LINE
  8
0
 10
-7.65772
 20
-17.27
 11
-7.82685
 21
-17.3928
  0
LINE
  8
0
 10
-7.82685
 20
-17.3928
 11
-8.01783
 21
-17.4779
  0
LINE
  8
0
 10
-8.01783
 20
-17.4779
 11
-8.22232
 21
-17.5213
  0
LINE
  8
0
 10
-8.22232
 20
-17.5213
 11
-8.43138
 21
-17.5213
  0
LINE
  8
0
 10
-8.43138
 20
-17.5213
 11
-8.63587
 21
-17.4779
  0
LINE
  8
0
 10
-8.63587
 20
-17.4779
 11
-8.82685
 21
-17.3928
  0
LINE
  8
0
 10
-8.82685
 20
-17.3928
 11
-8.99598
 21
-17.27
  0
LINE
  8
0
 10
-8.99598
 20
-17.27
 11
-9.13587
 21
-17.1146
  0
LINE
  8
0
 10
-9.13587
 20
-17.1146
 11
-9.24039
 21
-16.9335
  0
LINE
  8
0
 10
-9.24039
 20
-16.9335
 11
-9.305
 21
-16.7347
  0
LINE
  8
0
 10
-9.305
 20
-16.7347
 11
-9.32685
 21
-16.5268
  0
LINE
  8
0
 10
9.79999
 20
27.5268
 11
9.82184
 21
27.7347
  0
LINE
  8
0
 10
9.82184
 20
27.7347
 11
9.88644
 21
27.9335
  0
LINE
  8
0
 10
9.88644
 20
27.9335
 11
9.99097
 21
28.1146
  0
LINE
  8
0
 10
9.99097
 20
28.1146
 11
10.1309
 21
28.27
  0
LINE
  8
0
 10
10.1309
 20
28.27
 11
10.3
 21
28.3928
  0
LINE
  8
0
 10
10.3
 20
28.3928
 11
10.491
 21
28.4779
  0
LINE
  8
0
 10
10.491
 20
28.4779
 11
10.6955
 21
28.5213
  0
LINE
  8
0
 10
10.6955
 20
28.5213
 11
10.9045
 21
28.5213
  0
LINE
  8
0
 10
10.9045
 20
28.5213
 11
11.109
 21
28.4779
  0
LINE
  8
0
 10
11.109
 20
28.4779
 11
11.3
 21
28.3928
  0
LINE
  8
0
 10
11.3
 20
28.3928
 11
11.4691
 21
28.27
  0
LINE
  8
0
 10
11.4691
 20
28.27
 11
11.609
 21
28.1146
  0
LINE
  8
0
 10
11.609
 20
28.1146
 11
11.7135
 21
27.9335
  0
LINE
  8
0
 10
11.7135
 20
27.9335
 11
11.7781
 21
27.7347
  0
LINE
  8
0
 10
11.7781
 20
27.7347
 11
11.8
 21
27.5268
  0
LINE
  8
0
 10
11.8
 20
27.5268
 11
11.7781
 21
27.3189
  0
LINE
  8
0
 10
11.7781
 20
27.3189
 11
11.7135
 21
27.1201
  0
LINE
  8
0
 10
11.7135
 20
27.1201
 11
11.609
 21
26.939
  0
LINE
  8
0
 10
11.609
 20
26.939
 11
11.4691
 21
26.7837
  0
LINE
  8
0
 10
11.4691
 20
26.7837
 11
11.3
 21
26.6608
  0
LINE
  8
0
 10
11.3
 20
26.6608
 11
11.109
 21
26.5758
  0
LINE
  8
0
 10
11.109
 20
26.5758
 11
10.9045
 21
26.5323
  0
LINE
  8
0
 10
10.9045
 20
26.5323
 11
10.6955
 21
26.5323
  0
LINE
  8
0
 10
10.6955
 20
26.5323
 11
10.491
 21
26.5758
  0
LINE
  8
0
 10
10.491
 20
26.5758
 11
10.3
 21
26.6608
  0
LINE
  8
0
 10
10.3
 20
26.6608
 11
10.1309
 21
26.7837
  0
LINE
  8
0
 10
10.1309
 20
26.7837
 11
9.99097
 21
26.939
  0
LINE
  8
0
 10
9.99097
 20
26.939
 11
9.88644
 21
27.1201
  0
LINE
  8
0
 10
9.88644
 20
27.1201
 11
9.82184
 21
27.3189
  0
LINE
  8
0
 10
9.82184
 20
27.3189
 11
9.79999
 21
27.5268
  0
LINE
  8
0
 10
25.8
 20
-24.5268
 11
25.8218
 21
-24.3189
  0
LINE
  8
0
 10
25.8218
 20
-24.3189
 11
25.8864
 21
-24.1201
  0
LINE
  8
0
 10
25.8864
 20
-24.1201
 11
25.991
 21
-23.939
  0
LINE
  8
0
 10
25.991
 20
-23.939
 11
26.1309
 21
-23.7837
  0
LINE
  8
0
 10
26.1309
 20
-23.7837
 11
26.3
 21
-23.6608
  0
LINE
  8
0
 10
26.3
 20
-23.6608
 11
26.491
 21
-23.5758
  0
LINE
  8
0
 10
26.491
 20
-23.5758
 11
26.6955
 21
-23.5323
  0
LINE
  8
0
 10
26.6955
 20
-23.5323
 11
26.9045
 21
-23.5323
  0
LINE
  8
0
 10
26.9045
 20
-23.5323
 11
27.109
 21
-23.5758
  0
LINE
  8
0
 10
27.109
 20
-23.5758
 11
27.3
 21
-23.6608
  0
LINE
  8
0
 10
27.3
 20
-23.6608
 11
27.4691
 21
-23.7837
  0
LINE
  8
0
 10
27.4691
 20
-23.7837
 11
27.609
 21
-23.939
  0
LINE
  8
0
 10
27.609
 20
-23.939
 11
27.7135
 21
-24.1201
  0
LINE
  8
0
 10
27.7135
 20
-24.1201
 11
27.7781
 21
-24.3189
  0
LINE
  8
0
 10
27.7781
 20
-24.3189
 11
27.8
 21
-24.5268
  0
LINE
  8
0
 10
27.8
 20
-24.5268
 11
27.7781
 21
-24.7347
  0
LINE
  8
0
 10
27.7781
 20
-24.7347
 11
27.7135
 21
-24.9335
  0
LINE
  8
0
 10
27.7135
 20
-24.9335
 11
27.609
 21
-25.1146
  0
LINE
  8
0
 10
27.609
 20
-25.1146
 11
27.4691
 21
-25.27
  0
LINE
  8
0
 10
27.4691
 20
-25.27
 11
27.3
 21
-25.3928
  0
LINE
  8
0
 10
27.3
 20
-25.3928
 11
27.109
 21
-25.4779
  0
LINE
  8
0
 10
27.109
 20
-25.4779
 11
26.9045
 21
-25.5213
  0
LINE
  8
0
 10
26.9045
 20
-25.5213
 11
26.6955
 21
-25.5213
  0
LINE
  8
0
 10
26.6955
 20
-25.5213
 11
26.491
 21
-25.4779
  0
LINE
  8
0
 10
26.491
 20
-25.4779
 11
26.3
 21
-25.3928
  0
LINE
  8
0
 10
26.3
 20
-25.3928
 11
26.1309
 21
-25.27
  0
LINE
  8
0
 10
26.1309
 20
-25.27
 11
25.991
 21
-25.1146
  0
LINE
  8
0
 10
25.991
 20
-25.1146
 11
25.8864
 21
-24.9335
  0
LINE
  8
0
 10
25.8864
 20
-24.9335
 11
25.8218
 21
-24.7347
  0
LINE
  8
0
 10
25.8218
 20
-24.7347
 11
25.8
 21
-24.5268
  0
ENDSEC
  0
SECTION
  2
OBJECTS
  0
DICTIONARY
  0
ENDSEC
  0
EOF
